<svg width="421" height="120" viewBox="0 0 421 120" fill="none" xmlns="http://www.w3.org/2000/svg">
<path d="M0 0V118.518H65.8628H88.9154H113.555V118.41V89.0499V0H0Z" fill="white"/>
<path d="M183.762 96.0974C183.762 96.4874 183.641 96.8371 183.412 97.133C183.17 97.4289 182.78 97.671 182.229 97.8727C181.677 98.0745 180.924 98.2224 179.956 98.3166C178.987 98.4107 177.804 98.4645 176.392 98.4645C174.979 98.4645 173.729 98.4107 172.76 98.3166C171.792 98.2224 171.039 98.0745 170.487 97.8727C169.936 97.671 169.546 97.4289 169.304 97.133C169.062 96.8371 168.954 96.5009 168.954 96.0974V66.0778C168.954 63.5224 168.766 61.5184 168.389 60.0659C168.013 58.6133 167.475 57.3625 166.762 56.3269C166.049 55.2912 165.134 54.4843 164.018 53.9059C162.902 53.3276 161.584 53.0452 160.091 53.0452C158.208 53.0452 156.298 53.7311 154.375 55.103C152.451 56.4748 150.447 58.4788 148.363 61.1149V96.0839C148.363 96.474 148.242 96.8237 148.013 97.1195C147.771 97.4154 147.367 97.6575 146.803 97.8593C146.238 98.061 145.471 98.209 144.53 98.3031C143.588 98.3973 142.391 98.4511 140.938 98.4511C139.486 98.4511 138.289 98.3973 137.347 98.3031C136.406 98.209 135.653 98.061 135.074 97.8593C134.51 97.6575 134.106 97.4154 133.864 97.1195C133.622 96.8237 133.514 96.4874 133.514 96.0839V18.5469C133.514 18.1569 133.635 17.8072 133.864 17.4844C134.106 17.175 134.496 16.906 135.074 16.6909C135.639 16.4757 136.406 16.3008 137.347 16.1932C138.289 16.0722 139.486 16.0184 140.938 16.0184C142.391 16.0184 143.588 16.0722 144.53 16.1932C145.471 16.3143 146.224 16.4757 146.803 16.6909C147.367 16.906 147.771 17.175 148.013 17.4844C148.255 17.7937 148.363 18.1569 148.363 18.5469V47.6115C150.918 45.0964 153.527 43.2135 156.177 41.9761C158.826 40.7388 161.597 40.1201 164.462 40.1201C168.039 40.1201 171.052 40.7119 173.513 41.8954C175.975 43.079 177.952 44.693 179.472 46.7373C180.978 48.7816 182.081 51.1757 182.74 53.9059C183.412 56.6362 183.749 59.9448 183.749 63.8452V96.0974H183.762Z" fill="white"/>
<path d="M243.142 96.2722C243.142 96.8236 242.941 97.254 242.551 97.5634C242.161 97.8727 241.542 98.1014 240.695 98.2359C239.847 98.3703 238.596 98.4376 236.956 98.4376C235.18 98.4376 233.903 98.3703 233.096 98.2359C232.289 98.1014 231.724 97.8727 231.387 97.5634C231.051 97.254 230.89 96.8236 230.89 96.2722V92.0894C228.724 94.4027 226.263 96.2184 223.493 97.5096C220.722 98.8007 217.642 99.4598 214.266 99.4598C211.469 99.4598 208.913 99.0966 206.573 98.3703C204.233 97.6441 202.215 96.5681 200.494 95.129C198.786 93.6899 197.454 91.9145 196.513 89.7895C195.571 87.6645 195.1 85.1897 195.1 82.3653C195.1 79.2988 195.706 76.6358 196.903 74.3762C198.1 72.1167 199.888 70.2472 202.269 68.7677C204.65 67.2883 207.609 66.1989 211.146 65.4995C214.683 64.7867 218.785 64.437 223.466 64.437H228.59V61.2494C228.59 59.5951 228.429 58.156 228.092 56.9186C227.756 55.6813 227.205 54.6457 226.438 53.8252C225.671 53.0048 224.649 52.3861 223.371 51.9961C222.094 51.606 220.507 51.4043 218.624 51.4043C216.149 51.4043 213.93 51.6733 211.993 52.2247C210.043 52.7762 208.321 53.3814 206.828 54.0539C205.336 54.7264 204.085 55.3316 203.089 55.883C202.081 56.4345 201.274 56.7034 200.642 56.7034C200.211 56.7034 199.821 56.569 199.498 56.2865C199.162 56.0175 198.893 55.614 198.678 55.1029C198.463 54.5919 198.288 53.9597 198.18 53.22C198.059 52.4803 198.006 51.6464 198.006 50.7453C198.006 49.5213 198.1 48.5664 198.301 47.8536C198.503 47.1408 198.866 46.5086 199.418 45.9438C199.969 45.3789 200.924 44.7467 202.309 44.0608C203.681 43.3749 205.295 42.7293 207.151 42.151C208.994 41.5592 211.011 41.075 213.19 40.7119C215.369 40.3353 217.615 40.147 219.942 40.147C224.071 40.147 227.595 40.5505 230.527 41.3574C233.459 42.1644 235.866 43.4018 237.749 45.0695C239.632 46.7373 241.017 48.8892 241.878 51.5253C242.739 54.1615 243.169 57.2818 243.169 60.8997V96.2857L243.142 96.2722ZM228.576 73.7441H222.914C220.52 73.7441 218.476 73.9189 216.781 74.2686C215.087 74.6183 213.715 75.1563 212.652 75.8557C211.59 76.5685 210.81 77.4159 210.325 78.4246C209.828 79.4333 209.586 80.5765 209.586 81.8811C209.586 84.0869 210.285 85.8084 211.684 87.0727C213.083 88.3369 215.019 88.9556 217.494 88.9556C219.579 88.9556 221.489 88.4311 223.237 87.3686C224.985 86.306 226.761 84.7593 228.576 82.715V73.7576V73.7441Z" fill="white"/>
<path d="M286.248 98.1015L279.873 116.729C279.523 117.711 278.555 118.424 276.981 118.854C275.408 119.285 273.108 119.5 270.082 119.5C268.508 119.5 267.257 119.433 266.302 119.298C265.361 119.164 264.648 118.935 264.177 118.626C263.707 118.316 263.451 117.913 263.411 117.442C263.37 116.971 263.491 116.406 263.76 115.734L270.781 98.1015C270.27 97.8594 269.813 97.4963 269.396 97.0121C268.979 96.5279 268.683 96.0034 268.481 95.4519L250.378 47.1006C249.867 45.7287 249.611 44.6796 249.611 43.9399C249.611 43.2002 249.854 42.6488 250.324 42.2318C250.795 41.8149 251.589 41.5324 252.718 41.371C253.835 41.2097 255.328 41.1424 257.17 41.1424C258.865 41.1424 260.196 41.1693 261.178 41.2365C262.16 41.3038 262.927 41.4383 263.478 41.6804C264.029 41.909 264.446 42.2856 264.715 42.7698C264.984 43.2674 265.267 43.9534 265.536 44.8679L277.923 80.0656H278.098L289.422 44.1551C289.651 43.1329 289.96 42.4605 290.337 42.1242C290.713 41.788 291.332 41.5459 292.193 41.3845C293.054 41.2231 294.573 41.1558 296.739 41.1558C298.434 41.1558 299.832 41.2365 300.949 41.3845C302.065 41.5459 302.899 41.8418 303.423 42.2722C303.948 42.7026 304.217 43.2809 304.217 44.0072C304.217 44.7334 304.055 45.5942 303.746 46.576L286.235 98.115L286.248 98.1015Z" fill="white"/>
<path d="M355.958 96.2722C355.958 96.8236 355.756 97.254 355.366 97.5634C354.976 97.8727 354.357 98.1014 353.51 98.2359C352.662 98.3703 351.412 98.4376 349.771 98.4376C347.995 98.4376 346.718 98.3703 345.911 98.2359C345.104 98.1014 344.539 97.8727 344.203 97.5634C343.866 97.254 343.705 96.8236 343.705 96.2722V92.0894C341.54 94.4027 339.078 96.2184 336.308 97.5096C333.537 98.8007 330.457 99.4598 327.081 99.4598C324.284 99.4598 321.728 99.0966 319.388 98.3703C317.048 97.6441 315.03 96.5681 313.309 95.129C311.601 93.6899 310.269 91.9145 309.328 89.7895C308.386 87.6645 307.916 85.1897 307.916 82.3653C307.916 79.2988 308.521 76.6358 309.718 74.3762C310.915 72.1167 312.704 70.2472 315.084 68.7677C317.465 67.2883 320.424 66.1989 323.961 65.4995C327.498 64.7867 331.6 64.437 336.281 64.437H341.405V61.2494C341.405 59.5951 341.244 58.156 340.907 56.9186C340.571 55.6813 340.02 54.6457 339.253 53.8252C338.487 53.0048 337.464 52.3861 336.187 51.9961C334.909 51.606 333.322 51.4043 331.439 51.4043C328.964 51.4043 326.745 51.6733 324.808 52.2247C322.858 52.7762 321.137 53.3814 319.644 54.0539C318.151 54.7264 316.9 55.3316 315.905 55.883C314.909 56.4345 314.089 56.7034 313.457 56.7034C313.026 56.7034 312.636 56.569 312.3 56.2865C311.964 56.0175 311.695 55.614 311.48 55.1029C311.265 54.5919 311.09 53.9597 310.982 53.22C310.861 52.4803 310.807 51.6464 310.807 50.7453C310.807 49.5213 310.901 48.5664 311.103 47.8536C311.305 47.1408 311.668 46.5086 312.219 45.9438C312.771 45.3789 313.726 44.7467 315.111 44.0608C316.483 43.3749 318.097 42.7293 319.94 42.151C321.782 41.5726 323.8 41.075 325.978 40.7119C328.157 40.3353 330.403 40.147 332.73 40.147C336.859 40.147 340.383 40.5505 343.315 41.3574C346.247 42.1644 348.654 43.4018 350.537 45.0695C352.42 46.7373 353.806 48.8892 354.666 51.5253C355.527 54.1615 355.958 57.2818 355.958 60.8997V96.2857V96.2722ZM341.392 73.7441H335.729C333.335 73.7441 331.291 73.9189 329.596 74.2686C327.902 74.6183 326.53 75.1563 325.467 75.8557C324.405 76.5551 323.625 77.4159 323.141 78.4246C322.656 79.4333 322.401 80.5765 322.401 81.8811C322.401 84.0869 323.1 85.8084 324.499 87.0727C325.898 88.3369 327.834 88.9556 330.309 88.9556C332.394 88.9556 334.304 88.4311 336.052 87.3686C337.801 86.306 339.576 84.7593 341.392 82.715V73.7576V73.7441Z" fill="white"/>
<path d="M421 96.0975C421 96.4875 420.879 96.8372 420.65 97.1331C420.408 97.429 420.018 97.6711 419.467 97.8728C418.915 98.0746 418.162 98.2225 417.194 98.3167C416.225 98.4108 415.042 98.4646 413.63 98.4646C412.217 98.4646 410.967 98.4108 409.998 98.3167C409.03 98.2225 408.277 98.0746 407.725 97.8728C407.174 97.6711 406.784 97.429 406.542 97.1331C406.3 96.8372 406.192 96.501 406.192 96.0975V66.0779C406.192 63.5225 406.004 61.5185 405.627 60.066C405.25 58.6134 404.712 57.3626 404 56.327C403.287 55.2914 402.372 54.4844 401.256 53.906C400.14 53.3277 398.822 53.0453 397.329 53.0453C395.446 53.0453 393.536 53.7312 391.613 55.1031C389.689 56.4749 387.685 58.4789 385.601 61.115V96.084C385.601 96.4741 385.48 96.8238 385.251 97.1196C385.022 97.4155 384.605 97.6576 384.04 97.8594C383.476 98.0611 382.709 98.2091 381.767 98.3032C380.826 98.3974 379.629 98.4512 378.176 98.4512C376.724 98.4512 375.527 98.3974 374.585 98.3032C373.644 98.2091 372.891 98.0611 372.312 97.8594C371.747 97.6576 371.344 97.4155 371.102 97.1196C370.873 96.8238 370.752 96.4875 370.752 96.084V43.4826C370.752 43.0926 370.846 42.7429 371.048 42.447C371.25 42.1511 371.6 41.909 372.111 41.7072C372.622 41.5055 373.281 41.3576 374.088 41.2634C374.895 41.1693 375.903 41.1155 377.127 41.1155C378.351 41.1155 379.427 41.1693 380.248 41.2634C381.068 41.3576 381.714 41.5055 382.157 41.7072C382.601 41.909 382.938 42.1511 383.126 42.447C383.328 42.7429 383.422 43.0926 383.422 43.4826V49.5618C386.327 46.4146 389.286 44.0609 392.298 42.4873C395.311 40.9137 398.445 40.1336 401.7 40.1336C405.277 40.1336 408.29 40.7254 410.751 41.909C413.213 43.0926 415.19 44.6931 416.71 46.7105C418.216 48.7414 419.319 51.1085 419.978 53.8119C420.65 56.5287 420.987 59.7835 420.987 63.6032V96.0975H421Z" fill="white"/>
<path d="M52.4131 66.1047C52.83 65.6474 53.2335 65.2036 53.6236 64.7598C54.0405 64.289 54.444 63.8048 54.8609 63.3341C55.6545 62.4195 56.4614 61.505 57.2684 60.5904C57.8198 59.9582 58.3847 59.3396 58.9362 58.7209C59.7431 57.8063 60.5501 56.8783 61.3705 55.9503C61.9489 55.2912 62.5407 54.6457 63.1324 53.9866C63.8856 53.1258 64.6388 52.2516 65.392 51.3908C65.9703 50.7453 66.5352 50.0728 67.127 49.4541C67.4632 49.1044 67.8533 48.7816 68.2567 48.5261C68.7813 48.1898 69.3596 48.2302 69.9514 48.3781C70.6911 48.5664 71.1619 49.1313 71.7133 49.5886C72.1706 49.9786 72.5875 50.3956 72.8565 50.947C73.0986 51.4312 73.0717 51.9154 73.0045 52.3996C72.9238 52.9241 72.6279 53.3814 72.2647 53.7849C71.3232 54.8339 70.3818 55.883 69.4538 56.9455C68.4316 58.1022 67.4094 59.2589 66.3872 60.4155C65.5399 61.3705 64.706 62.3254 63.8587 63.2803C63.0114 64.2352 62.1775 65.1902 61.3302 66.1451C60.4829 67.1 59.649 68.0549 58.8017 69.0098C57.9543 69.9648 57.1205 70.9197 56.2731 71.8746C55.5603 72.695 54.8744 73.5558 54.1212 74.3359C53.4622 75.0218 52.5476 75.1563 51.781 74.4973C50.5974 73.4751 49.4273 72.426 48.2572 71.3904C47.3022 70.5431 46.3473 69.7092 45.3924 68.8619C44.4375 68.0146 43.4826 67.1807 42.5276 66.3334C42.1241 65.9702 41.7072 65.6205 41.3575 65.217C40.7792 64.558 40.7254 63.7914 40.954 62.9575C41.1423 62.2716 41.6803 61.8412 42.0972 61.3167C42.299 61.0611 42.5276 60.819 42.7697 60.6038C43.6977 59.8238 44.7065 59.7565 45.7555 60.3079C45.9976 60.4424 46.1994 60.6442 46.4146 60.8325C47.2888 61.5991 48.1361 62.3792 49.0103 63.1593C50.1267 64.1411 51.2564 65.1094 52.3996 66.1182L52.4131 66.1047Z" fill="#121212"/>
<path d="M95.2905 99.4598L76.0441 80.6976H37.5244V37.5916H76.0441V63.1862H95.2905V19.058H18.2645V99.4598H70.2876L88.996 118.518H113.555L95.2905 99.4598Z" fill="#121212"/>
</svg>
